<?xml version="1.0" standalone="no"?>
<!DOCTYPE svg PUBLIC "-//W3C//DTD SVG 20010904//EN"
 "http://www.w3.org/TR/2001/REC-SVG-20010904/DTD/svg10.dtd">
<svg version="1.0" xmlns="http://www.w3.org/2000/svg"
 width="2160.000000pt" height="2160.000000pt" viewBox="0 0 2160.000000 2160.000000"
 preserveAspectRatio="xMidYMid meet">

<g transform="translate(0.000000,2160.000000) scale(0.100000,-0.100000)"
fill="#000000" stroke="none">
<path d="M0 10800 l0 -10800 10800 0 10800 0 0 10800 0 10800 -10800 0 -10800
0 0 -10800z m7635 2070 l0 -285 -245 -3 c-247 -2 -281 -5 -264 -22 5 -5 731
-259 1614 -564 883 -305 1613 -558 1623 -561 16 -7 17 20 17 467 l0 474 -26
52 c-28 56 -63 90 -128 125 -37 20 -60 22 -236 27 l-195 5 0 285 0 285 1015 0
1015 0 0 -285 0 -285 -205 -5 c-187 -5 -209 -7 -246 -27 -65 -35 -101 -70
-129 -126 l-25 -53 2 -470 3 -470 846 466 c465 256 936 515 1045 575 l199 110
-300 5 -300 5 0 280 0 280 1640 0 1640 0 0 -280 0 -280 -375 -6 c-399 -7 -462
-13 -643 -65 -49 -13 -128 -42 -175 -62 -81 -35 -2931 -1651 -2931 -1662 0
-11 2859 -1631 2929 -1660 88 -37 212 -72 330 -96 67 -14 165 -18 475 -23
l390 -6 3 -283 2 -282 -1642 2 -1643 3 0 280 0 280 352 5 352 5 -1097 571
-1097 570 -3 -470 -2 -470 25 -53 c28 -56 64 -91 129 -126 37 -20 59 -22 246
-27 l205 -5 0 -285 0 -285 -1015 0 -1015 0 0 285 0 285 195 5 c176 5 199 7
236 27 65 35 100 69 128 125 l26 52 0 474 c0 447 -1 474 -17 467 -10 -3 -740
-256 -1623 -561 -883 -305 -1609 -559 -1614 -564 -17 -17 17 -20 264 -22 l245
-3 0 -285 0 -285 -1015 0 -1015 0 0 285 0 285 205 5 c187 5 209 7 246 27 53
28 99 74 127 127 l22 41 0 1585 0 1585 -22 41 c-28 53 -74 99 -127 127 -37 20
-59 22 -246 27 l-205 5 -3 275 c-1 151 0 280 3 287 3 11 206 13 1017 11 l1013
-3 0 -285z"/>
<path d="M7056 11654 c-14 -14 -16 -103 -16 -854 0 -751 2 -840 16 -854 8 -9
19 -15 22 -13 4 2 600 197 1324 433 725 236 1318 431 1318 434 0 3 -593 198
-1318 434 -724 236 -1320 431 -1324 433 -3 2 -14 -4 -22 -13z"/>
</g>
</svg>
